<?xml version="1.0" encoding="utf-8"?>
<!-- Generator: Adobe Illustrator 24.2.3, SVG Export Plug-In . SVG Version: 6.00 Build 0)  -->
<svg version="1.1" id="Layer_1" xmlns="http://www.w3.org/2000/svg" xmlns:xlink="http://www.w3.org/1999/xlink" x="0px" y="0px"
	 viewBox="0 0 720.9 163.5" enable-background="new 0 0 720.9 163.5" xml:space="preserve">
<g id="Graphics">
	<path fill="#00BE64" d="M0,113.7c12.8,30.2,42.5,49.8,75.3,49.8C62.5,133.3,32.8,113.7,0,113.7z"/>
	<circle fill="#FFB900" cx="75.2" cy="61.3" r="61.3"/>
	<path fill="#00BE64" d="M75.3,163.5c24.1,0,45.9-14.1,55.8-36C107.1,127.5,85.2,141.6,75.3,163.5z"/>
	<circle fill="#003C96" cx="75.2" cy="61.3" r="30.7"/>
	<path fill="#FFFFFF" d="M469.7,61.3h25.6v99.4h-25.6V122h-44.8v38.7h-25.6V61.3h25.6v36.6h44.8L469.7,61.3z M507.4,86h31.9v74.8
		H565V86h31.5V61.3h-89.1L507.4,86z M720.9,139.1v21.1c-4.4,2.2-9.8,3.3-16.2,3.3c-13.3,0-20-5.8-22.7-15.1l-0.4,0.6
		c-7.8,9.7-18.5,14.5-32.4,14.5c-13.3,0-24.7-5-34.2-15.1c-9.3-10.1-14.1-22.7-14.1-37.4s4.8-27,14.1-37.2
		c9.5-10.1,20.9-15.3,34.2-15.3s23.7,4.4,31.4,13.3V61.3h25.7v70.3c0,6,2.7,9.1,8.2,9.1C716.6,140.8,718.9,140.2,720.9,139.1z
		 M681.5,111c0-8.2-2.6-14.9-8-20.1c-5.2-5.4-11.7-8-19.7-8s-14.5,2.6-19.7,8c-5.2,5.2-7.8,11.9-7.8,20.1s2.6,14.9,7.8,20.3
		c5.2,5.2,11.7,7.8,19.7,7.8s14.5-2.6,19.7-7.8C678.9,125.9,681.5,119.2,681.5,111z M188,61.3l-0.7,37.3
		c-0.2,15.1-0.7,22.6-2.9,31.2c-2,8.2-5.8,10.5-11.8,10.5c-1.8,0.1-3.6-0.2-5.3-0.7v21.1c2,1.1,5.3,1.6,9.7,1.6
		c18-0.5,26.8-9.1,31.2-24.4c3.1-10.9,3.6-19.3,4.2-31.9l0.6-20.2h31.8v74.7h25.6V61.3L188,61.3z M311.5,117.7
		c2.8,17,16.2,22.5,29.9,22.5c9,0,18.5-3.5,24.3-8.8l15.8,15.9c-9.4,10.5-22.6,16.2-40.6,16.2c-25.2,0-55.5-14.8-55.5-52.5
		s29.2-52.5,54-52.5c31.4,0,44.4,14.8,44.4,31.3C383.9,116.9,349.5,129.3,311.5,117.7z M356,92.7c0-7.7-7.6-11.1-16.2-11.1
		c-13.1,0-24.4,5.5-27.8,19.7C338.7,109,356,103.2,356,92.7L356,92.7z"/>
</g>
</svg>
