<svg width="14" height="20" viewBox="0 0 14 20" fill="none" xmlns="http://www.w3.org/2000/svg">
<path id="Union" fill-rule="evenodd" clip-rule="evenodd" d="M11.1996 0C11.7519 0 12.1996 0.447715 12.1996 1V18.4H13.1996C13.531 18.4 13.7996 18.6686 13.7996 19C13.7996 19.3314 13.531 19.6 13.1996 19.6L1.19958 19.6C0.868214 19.6 0.599585 19.3314 0.599585 19C0.599585 18.6686 0.868214 18.4 1.19959 18.4H2.19958V11C2.19958 10.4477 2.6473 10 3.19958 10C3.75187 10 4.19958 10.4477 4.19958 11V18.4H6.19958V6C6.19958 5.44772 6.6473 5 7.19958 5C7.75187 5 8.19958 5.44772 8.19958 6V18.4H10.1996V1C10.1996 0.447715 10.6473 0 11.1996 0Z" fill="#003C96"/>
</svg>
