<svg width="311" height="56" viewBox="0 0 311 56" fill="none" xmlns="http://www.w3.org/2000/svg"> <path d="M196.478 22.0245H177.935V6.11694H165.884V49.0287H177.935V32.1753H196.478V49.0287H208.53V6.11694H196.478V22.0245Z" fill="white"></path> <path d="M214.565 16.2677H228.57V49.0287H240.621V16.2677H254.797V6.11694H214.565V16.2677Z" fill="white"></path> <path d="M307.521 39.392C304.96 39.392 303.672 37.9323 303.672 35.0949V6.11711H291.628V10.7568C288.904 7.81511 284.633 5 277.837 5C265.194 5 256.629 13.8922 256.629 27.5283C256.629 41.1645 265.186 50.0566 277.837 50.0566C285.343 50.0566 289.777 46.616 292.435 43.3689C293.775 47.5543 296.921 50.1386 302.991 50.1386C305.981 50.1386 308.543 49.6247 310.593 48.5895V38.6249C309.749 39.1388 308.72 39.392 307.521 39.392ZM280.643 39.4814C273.033 39.4814 268.599 34.4469 268.599 27.5283C268.599 20.6097 273.033 15.5753 280.643 15.5753C286.972 15.5753 292.183 20.1629 292.183 27.5283C292.183 34.8938 286.964 39.4814 280.643 39.4814Z" fill="white"></path> <path d="M159.475 18.7925C159.475 10.4962 151.31 5 139.052 5C126.112 5 115.341 13.7358 115.341 27.5283C115.341 42.9518 128.348 50.1386 140.095 50.1386C147.291 50.1386 153.264 48.6789 157.217 45.7521V36.0407C152.739 38.5355 147.639 39.5931 142.731 39.8239C136.253 40.1293 129.71 37.2769 127.94 31.0509C130.206 31.684 133.507 32.2425 138.134 32.2425C149.6 32.2425 159.475 27.5805 159.475 18.7925ZM127.896 23.9014C129.31 18.1223 134.062 14.5475 139.903 14.5475C144.737 14.5475 147.631 16.3051 147.631 19.0085C147.631 22.3896 143.019 24.7207 136.083 24.7207C132.663 24.7207 129.998 24.4451 127.896 23.9014Z" fill="white"></path> <path d="M71.1846 18.7626C71.0958 25.8972 70.8441 29.4272 69.8152 33.4637C68.875 37.3364 67.0836 38.9673 64.2633 38.9673C63.3232 38.9673 62.4719 38.878 61.7834 38.6248V48.5968C62.7236 49.1107 64.2633 49.3713 66.3138 49.3713C74.7748 49.1107 78.8758 44.5529 80.9263 37.3364C82.3772 32.1753 82.6363 28.2208 82.8954 22.2927L83.0656 16.2752H97.123V49.0362H109.174V6.11694H71.4437L71.1846 18.7626Z" fill="white"></path> <path d="M0 38.3748C4.17279 48.2344 13.8977 55.1496 25.2222 55.1496C21.0494 45.2841 11.3303 38.3748 0 38.3748Z" fill="#00BE64"></path> <path d="M25.2267 41.3628C36.5799 41.3628 45.7835 32.1034 45.7835 20.6814C45.7835 9.25938 36.5799 0 25.2267 0C13.8735 0 4.66992 9.25938 4.66992 20.6814C4.66992 32.1034 13.8735 41.3628 25.2267 41.3628Z" fill="#FFB900"></path> <path d="M25.229 55.1486C33.5514 55.1486 40.7147 50.175 43.9486 43.0208C35.6262 43.0208 28.4629 47.9943 25.229 55.1486Z" fill="#00BE64"></path> <path d="M25.2269 31.0223C30.9019 31.0223 35.5024 26.3939 35.5024 20.6845C35.5024 14.9751 30.9019 10.3467 25.2269 10.3467C19.5519 10.3467 14.9514 14.9751 14.9514 20.6845C14.9514 26.3939 19.5519 31.0223 25.2269 31.0223Z" fill="#003C96"></path> </svg>